<?xml version="1.0" standalone="no"?>
<!DOCTYPE svg PUBLIC "-//W3C//DTD SVG 20010904//EN"
 "http://www.w3.org/TR/2001/REC-SVG-20010904/DTD/svg10.dtd">
<svg version="1.0" xmlns="http://www.w3.org/2000/svg"
 width="800.000000pt" height="800.000000pt" viewBox="0 0 800.000000 800.000000"
 preserveAspectRatio="xMidYMid meet">
<metadata>
Created by potrace 1.11, written by Peter Selinger 2001-2013
</metadata>
<g transform="translate(0.000000,800.000000) scale(0.100000,-0.100000)"
fill="#000000" stroke="none">
<path d="M3618 6985 c-2 -2 -21 -6 -42 -9 -22 -4 -64 -14 -94 -22 -30 -9 -60
-17 -66 -19 -6 -1 -20 -5 -31 -9 -11 -5 -31 -12 -45 -16 -14 -4 -34 -11 -45
-16 -11 -4 -24 -8 -30 -9 -74 -17 -919 -352 -1190 -471 -22 -10 -42 -18 -45
-19 -13 -4 -244 -105 -375 -165 -155 -70 -393 -190 -415 -208 -20 -17 -23 -24
-14 -39 19 -31 145 -90 254 -118 3 -1 17 -5 32 -9 l27 -8 -39 -51 c-55 -74
-112 -169 -163 -272 -42 -84 -101 -214 -103 -225 -1 -5 -3 -11 -41 -110 -14
-36 -26 -72 -28 -81 -2 -9 -11 -39 -20 -65 -9 -27 -18 -56 -20 -64 -3 -8 -12
-40 -20 -70 -24 -80 -93 -358 -100 -399 -15 -97 -20 -105 -92 -139 -104 -49
-228 -115 -231 -124 -2 -4 -8 -8 -13 -8 -8 0 -209 -119 -219 -130 -3 -3 -23
-17 -45 -30 -50 -30 -57 -39 -49 -70 6 -27 90 -200 104 -214 5 -5 29 -1 57 8
39 13 44 13 28 1 -55 -40 -57 -51 -17 -96 l29 -32 109 58 c60 32 134 73 164
91 56 33 74 35 66 6 -3 -10 -8 -39 -11 -67 -3 -27 -13 -61 -23 -75 -32 -43
-114 -99 -192 -130 -126 -52 -146 -63 -167 -95 -30 -45 -23 -108 14 -147 31
-32 163 -100 230 -118 23 -6 45 -14 47 -19 3 -5 -20 -22 -51 -37 -31 -16 -80
-52 -110 -79 -42 -40 -53 -57 -53 -82 0 -82 33 -108 156 -123 81 -9 169 -23
233 -36 23 -5 22 -7 -20 -31 -54 -32 -89 -62 -89 -79 0 -19 -22 -32 -70 -38
-123 -17 -157 -37 -119 -68 12 -10 25 -15 30 -12 11 6 38 12 101 20 44 6 47 5
61 -23 9 -16 90 -104 181 -194 l165 -166 -107 -22 c-229 -46 -404 -89 -627
-152 -38 -11 -77 -21 -85 -23 -8 -2 -40 -12 -70 -21 -195 -62 -229 -81 -198
-112 11 -10 27 -8 88 13 65 22 316 98 360 109 8 2 15 4 15 5 0 1 7 3 15 5 8 2
53 13 100 25 74 19 171 42 235 55 115 25 164 36 185 39 14 3 25 5 25 6 0 1 9
3 20 4 11 2 40 6 65 10 43 6 47 5 95 -40 28 -25 70 -63 95 -83 25 -20 50 -41
55 -47 6 -6 34 -30 63 -54 l54 -44 -124 -41 c-135 -46 -310 -113 -403 -155
-33 -15 -82 -37 -110 -49 -80 -35 -149 -72 -168 -91 -17 -16 -17 -18 -2 -33
15 -16 19 -15 53 2 60 31 201 96 282 130 41 18 84 36 95 41 35 16 326 120 343
123 9 1 22 5 27 8 6 4 23 9 38 13 24 6 42 -4 125 -64 53 -39 105 -77 114 -85
9 -7 27 -19 39 -26 13 -6 32 -20 43 -30 11 -11 23 -19 27 -19 3 0 39 -22 80
-49 181 -119 467 -270 689 -365 119 -51 420 -157 482 -170 13 -3 52 -12 88
-21 36 -9 72 -18 80 -19 8 -2 33 -7 55 -11 22 -5 45 -9 50 -9 6 -1 28 -5 50
-9 22 -4 63 -10 90 -14 67 -9 511 -9 555 1 19 4 49 9 65 11 46 5 92 14 190 37
50 12 92 22 95 23 12 2 123 40 200 68 75 27 337 152 350 166 3 3 15 12 28 19
12 6 32 18 45 25 12 6 24 14 27 18 3 3 22 15 42 28 41 25 195 141 248 187 68
59 187 180 226 229 21 27 43 54 47 60 27 33 141 204 177 263 37 63 45 70 68
67 33 -4 94 -13 147 -22 22 -3 49 -7 60 -9 24 -3 97 -17 155 -29 14 -3 34 -7
46 -9 11 -2 44 -11 72 -20 29 -8 52 -13 52 -11 0 2 16 -3 35 -11 19 -8 36 -14
37 -13 2 1 23 -5 48 -12 25 -7 50 -13 55 -15 28 -5 223 -82 324 -126 98 -43
115 -48 128 -36 24 25 4 45 -90 86 -132 58 -272 112 -289 112 -8 0 -18 3 -22
7 -3 4 -12 8 -19 9 -7 1 -33 9 -59 18 -54 18 -266 72 -318 81 -19 3 -42 8 -50
10 -8 2 -30 7 -47 10 -41 6 -82 14 -108 19 -11 2 -48 7 -82 11 -35 4 -63 9
-63 11 0 3 19 41 42 84 l42 79 150 -4 c196 -6 272 -11 446 -30 14 -1 52 -5 85
-9 58 -6 85 -10 150 -21 17 -3 46 -8 65 -11 49 -7 133 -23 230 -44 73 -16 83
-19 166 -41 43 -11 95 -24 114 -28 19 -5 48 -14 63 -20 41 -16 79 6 59 35 -11
16 -134 56 -242 79 -8 2 -46 11 -85 20 -38 9 -77 18 -85 19 -105 21 -90 18
-190 36 -104 18 -116 20 -161 26 -54 7 -76 10 -159 18 -36 4 -81 9 -100 11
-74 8 -272 19 -458 24 l-22 1 19 37 c16 32 39 88 91 219 4 11 14 21 22 21 7 1
60 5 118 9 191 14 526 8 675 -12 125 -16 150 -13 143 22 -4 25 -40 32 -278 51
-99 8 -451 7 -563 -1 -83 -7 -88 -6 -83 11 18 62 31 118 47 198 17 92 48 116
284 226 11 6 27 27 36 48 16 36 15 42 -1 78 -27 60 -90 115 -226 200 -18 11
-18 11 1 18 95 32 123 55 129 103 7 54 -22 92 -106 138 -21 12 -45 28 -54 35
-10 8 -20 13 -23 12 -8 -2 -111 57 -112 65 -1 4 -3 34 -4 67 -13 272 -16 336
-20 375 -2 25 -6 86 -10 135 -3 50 -8 101 -10 115 -2 14 -6 59 -10 100 -3 41
-8 88 -10 105 -3 16 -7 55 -10 85 -2 30 -7 66 -9 80 -4 26 -13 86 -21 155 -3
22 -8 51 -10 65 -3 14 -10 53 -15 88 -55 335 -137 625 -233 819 -59 120 -89
153 -145 159 -60 5 -137 -47 -267 -180 -60 -63 -117 -123 -125 -134 -24 -32
-94 -115 -112 -134 -10 -10 -18 -20 -18 -23 0 -3 -9 -15 -19 -27 -31 -38 -154
-195 -185 -238 -17 -22 -33 -40 -37 -40 -4 0 -15 12 -25 28 -29 45 -129 165
-203 244 -78 83 -81 70 34 133 117 64 535 304 592 341 29 19 56 34 58 34 8 0
109 73 117 85 33 47 -372 208 -982 391 -63 19 -140 42 -170 51 -30 9 -56 16
-57 15 -2 0 -17 4 -35 9 -46 15 -204 58 -230 63 -13 3 -41 10 -63 16 -22 6
-51 13 -65 16 -28 7 -35 8 -70 17 -14 4 -36 9 -50 11 -14 3 -50 10 -80 15 -64
13 -118 19 -122 16z m2121 -985 c37 -83 84 -220 106 -310 9 -36 19 -72 22 -80
3 -8 7 -22 8 -30 1 -8 9 -51 19 -95 24 -118 26 -127 32 -165 3 -19 7 -42 9
-50 3 -8 7 -35 10 -60 3 -25 8 -58 11 -75 6 -35 13 -85 19 -135 2 -19 6 -51 9
-70 3 -19 8 -60 11 -90 3 -30 7 -66 9 -80 3 -14 7 -65 11 -114 4 -50 9 -99 11
-110 2 -12 6 -64 9 -116 4 -52 8 -120 10 -150 2 -30 7 -125 10 -210 7 -188 10
-208 38 -241 24 -28 99 -81 132 -93 16 -6 8 -12 -45 -34 -95 -40 -126 -95 -89
-163 5 -10 55 -42 112 -70 56 -28 114 -60 129 -70 14 -11 29 -19 33 -19 3 0
13 -6 21 -14 12 -13 11 -17 -8 -30 -12 -9 -27 -16 -33 -16 -22 -1 -141 -108
-167 -150 -14 -25 -29 -65 -32 -90 -4 -25 -17 -85 -30 -135 -46 -168 -49 -175
-71 -176 -11 0 -29 -2 -40 -4 -11 -2 -47 -9 -80 -15 -33 -6 -69 -13 -80 -15
-11 -2 -20 -4 -20 -5 0 -1 -11 -3 -25 -5 -14 -2 -45 -8 -70 -15 -25 -6 -56
-13 -70 -16 -196 -40 -732 -232 -797 -286 -17 -14 2 -48 27 -48 20 0 83 30 88
43 2 4 11 7 21 7 9 0 21 4 27 8 5 5 47 23 94 41 47 17 94 36 105 41 19 8 64
23 75 25 3 0 19 5 35 12 17 6 64 21 105 33 41 12 86 25 100 30 23 8 91 27 130
35 144 33 201 45 230 50 19 3 46 8 60 10 67 14 70 14 70 -1 0 -16 -87 -213
-102 -229 -5 -5 -32 -11 -61 -12 -76 -2 -224 -12 -287 -18 -54 -6 -90 -10
-183 -21 -41 -5 -50 -2 -66 17 -23 29 -68 20 -77 -16 -4 -17 -13 -25 -28 -26
-25 -1 -39 -3 -168 -29 -127 -26 -148 -35 -148 -60 0 -11 6 -21 13 -22 36 -4
43 -4 52 1 12 6 3 5 139 30 142 27 135 28 129 -16 -3 -21 -7 -40 -8 -42 -2 -1
-21 -5 -42 -7 -149 -13 -234 -25 -260 -35 -23 -8 -33 -48 -13 -50 6 -1 16 -2
23 -3 6 -1 30 2 52 7 22 4 65 10 95 13 30 2 67 6 83 8 33 4 33 2 5 -37 -80
-113 -260 -176 -376 -131 -134 51 -231 185 -249 345 -4 39 -1 48 21 70 113
104 223 347 181 399 -15 19 -86 142 -114 198 -12 23 -26 66 -31 94 -11 54 -21
68 -55 68 -57 0 -45 -107 26 -239 l40 -74 -33 8 c-59 14 -213 14 -269 1 -70
-16 -96 -31 -113 -64 -28 -56 8 -193 69 -257 28 -30 37 -35 67 -30 21 4 41 0
53 -9 20 -15 20 -15 -2 -56 -12 -23 -20 -47 -17 -55 5 -12 40 -27 69 -29 42
-4 -12 -190 -90 -311 -46 -73 -75 -101 -131 -128 -108 -54 -237 -61 -409 -23
-97 21 -233 90 -301 151 l-49 45 115 -5 c63 -3 142 -7 174 -10 34 -3 64 0 71
5 19 16 6 50 -19 51 -11 0 -41 3 -66 5 -69 6 -208 13 -271 13 l-56 1 -26 53
c-15 29 -27 56 -27 60 0 4 17 6 38 3 20 -3 64 -8 97 -11 67 -6 148 -14 185
-20 96 -15 128 -15 140 0 29 35 -16 50 -210 69 -25 3 -70 7 -100 11 -30 3 -79
7 -109 10 -56 5 -70 15 -72 50 0 11 -2 36 -4 56 -1 20 0 41 4 47 8 13 290 -63
436 -118 79 -30 120 -32 120 -5 0 21 -56 54 -120 71 -5 1 -48 14 -94 29 -46
15 -92 28 -102 30 -11 2 -23 6 -27 9 -5 3 -19 7 -33 10 -13 3 -51 13 -84 21
-33 9 -67 17 -75 20 -71 18 -193 46 -216 49 -16 2 -36 6 -44 9 -8 3 -28 8 -45
11 -16 3 -82 14 -145 25 -63 12 -133 23 -155 26 -22 3 -51 8 -65 10 -40 7
-141 19 -250 29 -36 4 -83 8 -105 11 -167 19 -713 27 -932 13 l-101 -7 14 27
c25 48 14 96 -30 135 -34 31 -69 45 -173 73 -103 27 -105 27 -168 39 -35 6
-37 8 -20 18 11 6 22 12 25 13 3 0 45 20 94 43 78 37 129 60 146 66 3 1 16 7
30 13 14 6 56 24 94 40 70 30 70 34 6 46 -14 3 -36 7 -50 10 -14 3 -50 11 -80
17 -103 21 -265 60 -349 86 l-83 25 63 35 c122 67 232 175 243 238 3 17 8 55
11 85 3 30 8 66 10 80 7 36 17 122 19 145 1 12 24 38 56 63 136 105 219 187
293 284 l28 38 -23 17 c-13 10 -45 42 -73 70 -39 41 -56 52 -75 49 -14 -2 -46
-7 -71 -11 l-46 -6 18 78 c11 43 22 91 25 107 2 16 7 32 9 36 2 3 6 17 9 31
22 115 129 440 197 596 75 173 174 346 217 380 18 15 51 -1 137 -65 89 -68
317 -301 311 -319 -5 -13 -157 -241 -183 -273 -116 -148 -195 -232 -215 -229
-60 8 -106 -26 -216 -154 -83 -97 3 -219 121 -172 10 4 42 33 70 63 29 30 59
62 68 71 27 27 41 61 38 96 -3 28 3 40 36 73 86 84 186 213 280 359 33 51 65
92 70 93 10 0 139 -156 231 -280 27 -36 55 -71 62 -79 7 -8 21 -26 30 -40 9
-14 20 -30 25 -36 16 -21 102 -141 112 -156 57 -89 130 -189 139 -190 6 -1 40
-3 76 -5 36 -2 88 -6 115 -8 28 -2 93 -7 146 -11 53 -3 125 -8 160 -10 428
-30 411 -28 509 -49 41 -8 86 -17 100 -20 14 -2 72 -14 130 -26 58 -12 112
-23 120 -24 12 -3 82 -17 100 -21 13 -3 137 -16 155 -17 45 0 119 32 165 72
14 12 92 64 175 117 219 140 366 238 400 268 17 15 37 32 46 39 9 6 28 29 43
50 22 33 25 46 20 85 -9 71 -62 227 -110 324 -46 94 -47 110 -5 154 12 12 21
25 21 28 0 8 103 139 112 143 5 2 8 8 8 14 0 5 6 15 13 22 6 7 26 31 44 52 88
109 200 243 227 273 65 71 147 151 155 151 5 0 22 -31 40 -70z m-3591 -291
c89 -18 161 -35 160 -38 -18 -38 -94 -171 -98 -171 -3 0 -63 57 -134 126 -71
70 -120 124 -110 121 10 -4 92 -21 182 -38z m352 -65 c70 -9 225 -40 225 -44
0 -12 -241 -430 -246 -428 -3 2 -52 59 -107 127 l-102 124 18 31 c9 17 19 33
23 36 3 3 13 21 22 40 57 115 73 133 111 124 17 -4 42 -8 56 -10z m-295 -2958
c17 -3 71 -8 120 -11 50 -3 101 -8 115 -10 14 -2 50 -7 80 -10 30 -3 66 -8 80
-10 14 -2 45 -7 70 -10 47 -6 153 -22 205 -31 17 -3 37 -7 45 -9 8 -2 31 -7
50 -10 19 -3 80 -15 135 -26 55 -11 107 -21 114 -23 11 -2 15 -21 17 -74 1
-40 4 -79 8 -87 6 -17 -2 -19 -59 -14 -58 4 -859 1 -930 -4 -33 -3 -105 -8
-160 -11 -55 -4 -111 -9 -125 -11 -14 -2 -56 -6 -95 -10 -38 -3 -86 -8 -105
-10 -19 -3 -51 -7 -70 -9 -88 -11 -217 -28 -237 -31 -25 -4 -70 35 -277 238
-135 133 -142 145 -76 148 14 0 34 2 45 4 26 5 115 13 240 21 55 3 101 7 103
9 5 5 674 -4 707 -9z m3669 -302 c15 -6 11 -17 -43 -109 l-17 -29 -243 -1
-242 0 5 44 c3 24 7 45 8 46 3 3 52 10 141 20 88 10 135 14 247 21 63 3 117 8
119 10 6 5 7 5 25 -2z m-2648 -84 c27 -1 35 -11 62 -77 l21 -53 -62 -1 c-34 0
-89 -2 -122 -4 -177 -9 -298 -17 -314 -20 -10 -2 -54 -6 -97 -10 -43 -4 -88
-9 -99 -12 -11 -2 -40 -6 -65 -8 -43 -4 -112 -15 -230 -35 -30 -6 -66 -12 -80
-15 -32 -5 -221 -44 -240 -49 -21 -6 -111 -27 -133 -31 -10 -2 -27 -7 -38 -10
-17 -6 -123 72 -289 213 l-35 29 30 6 c17 3 50 9 75 12 25 3 56 7 70 9 14 3
56 7 93 11 37 3 77 8 88 10 11 2 59 7 107 10 48 3 101 7 117 9 17 3 84 7 150
11 66 4 121 8 123 10 2 2 737 -2 868 -5z m2544 -120 c0 -11 -92 -151 -158
-240 -70 -95 -189 -211 -317 -312 -55 -43 -105 -83 -112 -88 -39 -32 -244
-150 -338 -195 -168 -81 -409 -160 -554 -181 -20 -3 -43 -7 -51 -9 -72 -19
-492 -27 -582 -11 -21 3 -53 8 -70 11 -365 55 -770 198 -1158 410 -46 26 -97
55 -111 66 -15 10 -30 19 -32 19 -10 0 -142 84 -145 92 -2 5 -8 8 -13 8 -8 0
-48 26 -207 136 -23 16 -41 32 -42 35 0 6 279 71 365 85 22 4 49 8 60 10 39 8
201 33 240 38 22 3 58 7 80 10 43 6 119 14 200 21 124 11 201 15 355 21 l165
6 40 -43 c48 -53 155 -145 155 -134 0 5 8 1 18 -8 34 -30 168 -85 267 -108 66
-15 238 -20 295 -9 25 5 56 12 69 14 47 10 132 60 165 96 47 52 109 147 133
203 l20 49 22 -37 c11 -20 21 -39 21 -43 0 -20 133 -132 186 -157 184 -85 436
7 544 199 l31 55 230 -1 c126 0 229 -4 229 -8z"/>
<path d="M1380 4551 c0 -5 -2 -16 -5 -23 -8 -21 49 -99 87 -119 64 -33 89 12
29 53 -18 13 -40 37 -50 53 -9 17 -20 33 -26 37 -14 11 -35 10 -35 -1z"/>
<path d="M3642 4045 c-1 -34 2 -55 8 -55 14 0 20 16 23 65 1 29 -2 40 -13 43
-12 2 -16 -10 -18 -53z"/>
<path d="M4966 4059 c-7 -17 -12 -43 -11 -57 2 -38 28 -35 30 3 1 17 6 42 10
58 10 38 -12 36 -29 -4z"/>
<path d="M4765 4068 c-10 -25 59 -158 82 -158 18 0 17 5 -10 48 -13 20 -29 53
-37 72 -17 46 -28 57 -35 38z"/>
<path d="M5092 4044 c-21 -14 -31 -54 -14 -54 5 0 19 12 31 26 27 31 15 51
-17 28z"/>
<path d="M3446 4041 c-3 -5 9 -27 26 -50 18 -22 41 -52 51 -66 10 -14 22 -23
27 -20 10 6 1 45 -11 45 -5 0 -9 6 -9 13 -1 25 -74 94 -84 78z"/>
<path d="M3727 4012 c-19 -21 -22 -42 -6 -42 14 0 49 43 42 52 -7 13 -19 9
-36 -10z"/>
<path d="M5410 3779 c-94 -14 -107 -18 -176 -43 -133 -49 -384 -201 -384 -233
0 -18 10 -17 72 8 58 23 178 62 219 72 l26 7 0 -73 c1 -103 11 -177 28 -204
16 -24 39 -27 180 -24 98 2 110 9 145 85 l18 40 -29 27 c-33 31 -35 39 -14 79
14 28 30 35 63 31 8 -1 16 7 19 17 4 18 7 19 34 5 57 -28 139 6 139 58 0 50
-136 137 -228 146 -26 2 -51 5 -57 7 -5 1 -30 -1 -55 -5z"/>
<path d="M3292 3705 c-123 -28 -256 -88 -396 -180 -115 -76 -145 -102 -125
-110 9 -3 36 1 60 10 107 39 249 85 261 85 10 0 13 -22 12 -93 0 -79 4 -115
19 -186 7 -31 36 -38 159 -37 75 1 132 7 145 14 19 10 82 119 72 125 -2 1 -13
7 -24 13 -11 6 -24 25 -29 42 -12 44 21 90 64 87 27 -2 35 5 31 28 -1 10 13 9
25 -2 30 -30 132 -13 152 26 25 45 -49 127 -148 164 -71 27 -195 33 -278 14z"/>
</g>
</svg>
